# xmcd CD database file
#
# Track frame offsets:
#	150
#	19780
#	33370
#	46886
#	61092
#	73457
#	93459
#	108487
#	125428
#	141038
#	155737
#	169599
#
# Disc length: 2470 seconds
#
# Revision: 2
# Processed by: cddbd v1.4b41PL1 Copyright (c) Steve Scherf et al.
# Submitted via: Feurio! 1.60 - http://www.feurio.com
#
DISCID=a309a40c,b209a40c
DTITLE=Juan Perro - La Huella Sonora
DYEAR=1900
DGENRE=
TTITLE0=Historia De La Radio
TTITLE1=Obstinado En Mi Error
TTITLE2=Flor De Granado
TTITLE3=El Ala Rota
TTITLE4=El Papelito
TTITLE5=De Un Sueño Malo
TTITLE6=Señora Del Mar
TTITLE7=La Verbena
TTITLE8=La Noche De Fuego
TTITLE9=La Noria
TTITLE10=A La Media Luna
TTITLE11=El Agua De Los Ríos
EXTD=
EXTT0=
EXTT1=
EXTT2=
EXTT3=
EXTT4=
EXTT5=
EXTT6=
EXTT7=
EXTT8=
EXTT9=
EXTT10=
EXTT11=
PLAYORDER=
